<?xml version="1.0" encoding="UTF-8" standalone="no"?>
<!-- Created with Inkscape (http://www.inkscape.org/) -->

<svg
   xmlns:dc="http://purl.org/dc/elements/1.1/"
   xmlns:cc="http://creativecommons.org/ns#"
   xmlns:rdf="http://www.w3.org/1999/02/22-rdf-syntax-ns#"
   xmlns:svg="http://www.w3.org/2000/svg"
   xmlns="http://www.w3.org/2000/svg"
   xmlns:sodipodi="http://sodipodi.sourceforge.net/DTD/sodipodi-0.dtd"
   xmlns:inkscape="http://www.inkscape.org/namespaces/inkscape"
   width="9.0474501mm"
   height="9.0474501mm"
   viewBox="0 0 32.057892 32.057891"
   id="svg2"
   version="1.1"
   inkscape:version="0.91 r13725"
   sodipodi:docname="logo.svg"
   inkscape:export-filename="C:\Users\Saul\Documents\GitKraken\sulfide\Assets\logo.png"
   inkscape:export-xdpi="1437.4"
   inkscape:export-ydpi="1437.4">
  <defs
     id="defs4" />
  <sodipodi:namedview
     id="base"
     pagecolor="#ffffff"
     bordercolor="#666666"
     borderopacity="1.0"
     inkscape:pageopacity="0.0"
     inkscape:pageshadow="2"
     inkscape:zoom="11.318338"
     inkscape:cx="26.612281"
     inkscape:cy="10.641296"
     inkscape:document-units="px"
     inkscape:current-layer="text3346"
     showgrid="false"
     fit-margin-top="0"
     fit-margin-left="0"
     fit-margin-right="0"
     fit-margin-bottom="0"
     inkscape:window-width="1920"
     inkscape:window-height="1017"
     inkscape:window-x="-8"
     inkscape:window-y="-8"
     inkscape:window-maximized="1" />
  <metadata
     id="metadata7">
    <rdf:RDF>
      <cc:Work
         rdf:about="">
        <dc:format>image/svg+xml</dc:format>
        <dc:type
           rdf:resource="http://purl.org/dc/dcmitype/StillImage" />
        <dc:title></dc:title>
      </cc:Work>
    </rdf:RDF>
  </metadata>
  <g
     inkscape:label="Layer 1"
     inkscape:groupmode="layer"
     id="layer1"
     transform="translate(1.8825057,-254.36963)">
    <g
       style="font-style:normal;font-weight:normal;font-size:40px;line-height:125%;font-family:sans-serif;letter-spacing:0px;word-spacing:0px;fill:#000000;fill-opacity:1;stroke:none;stroke-width:1px;stroke-linecap:butt;stroke-linejoin:miter;stroke-opacity:1"
       id="text3346">
      <g
         id="g3357"
         transform="matrix(1.3804568,0,0,1.3804568,-5.3821067,-108.21606)">
        <path
           inkscape:connector-curvature="0"
           style="fill:#ff6600"
           id="path3355"
           d="m 25.73823,265.45905 q -0.390625,3.78907 -2.167969,5.72266 -1.777344,1.93359 -4.863281,1.93359 -1.503906,0 -2.871094,-0.72265 -1.367187,-0.74219 -2.460937,-1.6211 -1.269532,-1.01562 -2.285157,-1.54296 -1.015625,-0.54688 -1.8750004,-0.54688 -1.464843,0 -2.285156,0.9375 -0.820312,0.9375 -1.367187,3.35938 l -3.027344,0 q 0.449219,-3.55469 2.1875,-5.46875 1.757812,-1.91407 4.863281,-1.91407 1.4062504,0 2.7929694,0.72266 1.386719,0.72266 2.539062,1.62109 1.191407,0.9375 2.226563,1.52344 1.054687,0.56641 1.933594,0.56641 1.484375,0 2.34375,-1.05469 0.878906,-1.07422 1.25,-3.51563 l 3.066406,0 z" />
        <path
           inkscape:connector-curvature="0"
           style="fill:#c83737"
           id="path3351"
           d="m 25.75776,275.53718 q -0.488281,3.59375 -2.1875,5.50781 -1.699219,1.89453 -4.882812,1.89453 -1.40625,0 -2.8125,-0.72265 -1.40625,-0.74219 -2.519532,-1.6211 -0.761718,-0.60547 -2.011718,-1.34765 -1.25,-0.74219 -2.1484384,-0.74219 -1.523437,0 -2.363281,1.07422 -0.839844,1.07422 -1.230469,3.49609 l -3.066406,0 q 0.371094,-3.75 2.148437,-5.70312 1.796875,-1.95313 4.882813,-1.95313 1.5039064,0 2.8515624,0.72266 1.347657,0.72265 2.480469,1.62109 0.683594,0.54688 1.894531,1.32813 1.210938,0.76172 2.265625,0.76172 1.464844,0 2.285157,-0.95704 0.820312,-0.97656 1.347656,-3.35937 l 3.066406,0 z" />
      </g>
    </g>
  </g>
</svg>
